<?xml version="1.0" encoding="utf-8"?>
<!-- Generator: Adobe Illustrator 22.0.0, SVG Export Plug-In . SVG Version: 6.00 Build 0)  -->
<svg version="1.1" id="Layer_1" xmlns="http://www.w3.org/2000/svg" xmlns:xlink="http://www.w3.org/1999/xlink" x="0px" y="0px"
	 viewBox="0 0 1200 1200" enable-background="new 0 0 1200 1200" xml:space="preserve">
<path fill="#565656" d="M253.982,1120.561l2.46,11.681h-34.091l1.803-5.353l2.123-6.328l2.374-7.077l0.194,7.077l0.156,5.677h11.966
	l-1.404-5.677h12.64h1.013H253.982z M235.049,1098.748h-1.043l3.438,13.91h11.891h1.698h1.284l-2.93-13.91h-2.197H235.049z
	 M244.964,1090.845h2.759l-2.351-11.165l-6.377,0.259l-3.636,10.906h5.931H244.964z M292.656,1078.953h-30.02v0.726l2.906,11.165
	h7.479h13.11l0.303-7.069l1.485,7.069h7.508L292.656,1078.953z M297.27,1098.748h-28.528l2.922,13.91h28.847L297.27,1098.748z
	 M273.324,1120.561l3.316,15.788h29.392l-3.68-15.788H273.324z M321.79,1136.349h15.663l10.716-15.788h-19.876L321.79,1136.349z
	 M331.548,1112.658h21.985l9.441-13.91h-25.697L331.548,1112.658z M356.118,1078.953h-44.796l3.318,12.081l2.074,8.14l3.318-14.31
	l1.407,5.98h41.839L356.118,1078.953z M408.982,1112.658h16.219l1.698-13.91h-16.874L408.982,1112.658z M390.285,1099.174
	l3.318-14.31l1.407,5.98h32.785l1.245-11.891h-48.503L390.285,1099.174z M407.311,1134.949h15.169l1.756-14.388H408.39
	L407.311,1134.949z M1037.448,76.769L724.63,673.933l9.415,35.68l-0.987,1.757c-1.643,2.929-164.55,293.47-192.316,356.309
	C516.263,1123.072,489.06,1150,457.575,1150H181.312c-19.414,0-20.923-33.612-20.923-43.914c0-35.043,15.187-42.419,27.939-42.432
	c10.023-0.109,236.697-2.596,245.514-2.596c4.943,0,16.57-10.47,28.382-29.871c10.171-16.711,184.585-356.324,186.345-359.753
	l0.95-1.852l37.836-11.87L1002.577,50l37.034,22.642L1037.448,76.769z M200.943,1140.045l27.002-66.868
	c-23.206,0.253-38.929,0.425-39.533,0.432h-0.053c-4.455,0-18.014,0-18.014,32.477c0,19.36,4.715,33.959,10.968,33.959H200.943z
	 M263.119,1140.045l-4.663-19.484l-1.892-7.903l-3.329-13.91l-1.891-7.903l-4.278-17.876c-2.846,0.031-5.629,0.061-8.338,0.091
	l-7.182,17.785l-3.192,7.903l-16.676,41.297H263.119z M309.919,1140.045l-4.216-19.484l-1.71-7.903l-3.01-13.91l-1.71-7.903
	l-3.981-18.398c-13.127,0.142-25.998,0.281-38.017,0.412l4.305,17.987l1.892,7.903l3.329,13.91l1.892,7.903l4.663,19.484H309.919z
	 M352.815,1120.561l5.604-7.903l12.918-18.217l-12.255-22.678c-16.972,0.18-35.381,0.377-53.627,0.574l14.65,67.708h18.893
	L352.815,1120.561z M395.982,1140.045l-19.365-35.836l-9.16,12.918l-2.435,3.433l-13.817,19.484H395.982z M433.857,1071.013
	c-0.005,0-0.009,0.001-0.014,0.001c-2.828,0-29.118,0.267-63.507,0.63l22.164,41.014l4.271,7.903l10.529,19.484h17.381l2.59-19.484
	l1.051-7.903l1.849-13.91l1.051-7.903L433.857,1071.013z M494.263,1123.114l-42.905-61.49c-2.264,2.174-4.601,4.107-6.962,5.652
	l-6.032,45.382l-1.051,7.903l-2.59,19.484h22.853C470.403,1140.045,482.583,1134.446,494.263,1123.114z M885.906,341.447
	l-18.005-10.187L694.287,665.971l-37.814,11.865c-5.244,10.211-27.299,53.145-54.496,105.968
	c-20.577,39.965-44.091,85.577-65.513,126.996c-4.626,8.944-9.155,17.693-13.534,26.145c-5.147,9.934-10.091,19.464-14.744,28.419
	c-19.97,38.429-34.633,66.355-37.46,71.001c-2.681,4.404-7.142,11.275-12.473,17.742l33.583,48.13
	c-4.463-11.504-17.818-49.518-19.684-51.384c0,0,3.323-4.183,7.24-9.771l0.003,0.001l17.333,12.69l-10.372-23.448
	c1.072-1.837,2.07-3.66,2.906-5.395c1.263-2.622,11.691-22.564,26.922-51.568l20.392,20.392l13.632,13.632l1.648,1.648
	l15.583-29.642l-1.194-1.139l-14.658-13.979l-20.401-19.456c4.452-8.466,9.117-17.335,13.94-26.498l20.714,17.982l3.258,2.828
	c8.469-10.437,21.676-26.746,22.848-28.39c-0.932,1.917-5.862,23.852-8.619,36.304c-0.3,1.354-0.57,2.578-0.81,3.669l33.917-64.52
	l26.59-50.582c-9.342,9.029-23.507,22.826-24.578,24.503c1.168-2.749,15.991-44.856,15.991-44.856l-4.491-4.446l-9.267-9.174
	l-0.002-0.002l-9.377-8.943c31.094-58.99,55.905-106.018,55.905-106.018l27.375-10.369l10.369,4.148l-1.343-10.856l170.89-326.563
	L885.906,341.447z M899.665,318.341l-9.395-30.206l-17.782,34.281l19.317,10.929L899.665,318.341z M935.579,249.782l-27.322,3.676
	l-11.469,22.11l9.419,30.284L935.579,249.782z M949.242,223.697l-6.511-36.704l-28.874,55.667l27.382-3.684L949.242,223.697z
	 M979.379,166.168l-19.981-11.304l-9.13,17.603l6.53,36.81L979.379,166.168z M1026.468,76.276l-19.973-12.211l-42.512,81.958
	l19.721,11.157l-10.142-13.386l30.383-57.136l9.333,1.348l-3.733-13.481l14.498,6.377L1026.468,76.276z M177.421,1095.752h35.74
	l1.864-4.718H178.14C177.814,1092.555,177.583,1094.141,177.421,1095.752z M191.793,1077.835c-4.469,0.001-7.617,1.687-9.822,4.385
	h36.536l1.733-4.385C220.24,1077.835,201.13,1077.835,191.793,1077.835z M177.658,1115.602c0.176,3.459,1.86,19.01,7.259,19.426
	c4.044,0.311,12.78-0.139,12.78-0.139l14.111-35.715h-34.628C176.911,1105.344,177.45,1111.51,177.658,1115.602z M618.444,860.113
	c-0.037,0.058-0.077,0.119-0.081,0.147C618.353,860.317,618.389,860.244,618.444,860.113z M592.027,910.591
	c-0.022,0.019-0.053,0.084-0.083,0.147C592.027,910.622,592.071,910.553,592.027,910.591z M959.211,196.838l14.453-27.755
	l-7.979-4.291l-9.017,14.934L959.211,196.838z M923.226,237.001l16.332-1.711l5.329-10.788l-3.929-20.943L923.226,237.001z
	 M907.516,295.641l20.065-38.575l-12.932,1.362l-11.157,22.953L907.516,295.641z M879.674,321.461l11.753,6.844l4.734-8.088
	l-6.014-16.497L879.674,321.461z"/>
</svg>
